<svg width="36" height="32" viewBox="0 0 36 32" fill="none" xmlns="http://www.w3.org/2000/svg">
<path d="M5.625 6.875C5.32663 6.875 5.04048 6.75647 4.8295 6.5455C4.61853 6.33452 4.5 6.04837 4.5 5.75C4.5 5.45163 4.61853 5.16548 4.8295 4.9545C5.04048 4.74353 5.32663 4.625 5.625 4.625H30.375C30.6734 4.625 30.9595 4.74353 31.1705 4.9545C31.3815 5.16548 31.5 5.45163 31.5 5.75C31.5 6.04837 31.3815 6.33452 31.1705 6.5455C30.9595 6.75647 30.6734 6.875 30.375 6.875H5.625ZM10.125 2.375C9.82663 2.375 9.54048 2.25647 9.3295 2.0455C9.11853 1.83452 9 1.54837 9 1.25C9 0.951631 9.11853 0.665483 9.3295 0.454505C9.54048 0.243526 9.82663 0.125 10.125 0.125H25.875C26.1734 0.125 26.4595 0.243526 26.6705 0.454505C26.8815 0.665483 27 0.951631 27 1.25C27 1.54837 26.8815 1.83452 26.6705 2.0455C26.4595 2.25647 26.1734 2.375 25.875 2.375H10.125ZM0 28.25C0 29.1451 0.355579 30.0036 0.988515 30.6365C1.62145 31.2694 2.47989 31.625 3.375 31.625H32.625C33.5201 31.625 34.3786 31.2694 35.0115 30.6365C35.6444 30.0036 36 29.1451 36 28.25V12.5C36 11.6049 35.6444 10.7464 35.0115 10.1135C34.3786 9.48058 33.5201 9.125 32.625 9.125H3.375C2.47989 9.125 1.62145 9.48058 0.988515 10.1135C0.355579 10.7464 0 11.6049 0 12.5L0 28.25ZM3.375 29.375C3.07663 29.375 2.79048 29.2565 2.5795 29.0455C2.36853 28.8345 2.25 28.5484 2.25 28.25V12.5C2.25 12.2016 2.36853 11.9155 2.5795 11.7045C2.79048 11.4935 3.07663 11.375 3.375 11.375H32.625C32.9234 11.375 33.2095 11.4935 33.4205 11.7045C33.6315 11.9155 33.75 12.2016 33.75 12.5V28.25C33.75 28.5484 33.6315 28.8345 33.4205 29.0455C33.2095 29.2565 32.9234 29.375 32.625 29.375H3.375Z" fill="#908294"/>
</svg>
