<svg width="31" height="28" viewBox="0 0 31 28" fill="none" xmlns="http://www.w3.org/2000/svg">
<path d="M29.9999 11H28.9999V5C28.9999 4.73478 28.8945 4.48043 28.707 4.29289C28.5195 4.10536 28.2651 4 27.9999 4H3.99989C3.7631 4.00386 3.53263 3.92356 3.3495 3.7734C3.16638 3.62324 3.04249 3.41296 2.99989 3.18V2.82C3.04249 2.58704 3.16638 2.37676 3.3495 2.2266C3.53263 2.07644 3.7631 1.99614 3.99989 2H27.5799C27.8451 2 28.0995 1.89464 28.287 1.70711C28.4745 1.51957 28.5799 1.26522 28.5799 1C28.5799 0.734783 28.4745 0.48043 28.287 0.292893C28.0995 0.105357 27.8451 0 27.5799 0H3.99989C3.20424 0 2.44118 0.31607 1.87857 0.878679C1.31596 1.44129 0.999893 2.20435 0.999893 3C0.992874 3.1199 0.992874 3.2401 0.999893 3.36V23.93C1.00382 24.4684 1.11376 25.0008 1.32344 25.4967C1.53312 25.9927 1.83843 26.4424 2.22194 26.8204C2.60545 27.1983 3.05964 27.497 3.55859 27.6994C4.05754 27.9018 4.59147 28.0039 5.12989 28H27.9999C28.2651 28 28.5195 27.8946 28.707 27.7071C28.8945 27.5196 28.9999 27.2652 28.9999 27V21H29.9999C30.2651 21 30.5195 20.8946 30.707 20.7071C30.8945 20.5196 30.9999 20.2652 30.9999 20V12C30.9999 11.7348 30.8945 11.4804 30.707 11.2929C30.5195 11.1054 30.2651 11 29.9999 11ZM26.9999 26H5.12989C4.57369 26.0054 4.03787 25.7909 3.63898 25.4032C3.2401 25.0156 3.01041 24.4861 2.99989 23.93V5.88C3.32449 5.97407 3.66225 6.0146 3.99989 6H26.9999V11H19.9999C18.6738 11 17.402 11.5268 16.4644 12.4645C15.5267 13.4021 14.9999 14.6739 14.9999 16C14.9999 17.3261 15.5267 18.5978 16.4644 19.5355C17.402 20.4732 18.6738 21 19.9999 21H26.9999V26ZM28.9999 19H19.9999C19.2042 19 18.4412 18.6839 17.8786 18.1213C17.316 17.5587 16.9999 16.7956 16.9999 16C16.9999 15.2043 17.316 14.4413 17.8786 13.8787C18.4412 13.3161 19.2042 13 19.9999 13H28.9999V19Z" fill="#908294"/>
</svg>
